<?xml version="1.0" encoding="UTF-8" standalone="no"?>
<svg
   xmlns:dc="http://purl.org/dc/elements/1.1/"
   xmlns:cc="http://creativecommons.org/ns#"
   xmlns:rdf="http://www.w3.org/1999/02/22-rdf-syntax-ns#"
   xmlns:svg="http://www.w3.org/2000/svg"
   xmlns="http://www.w3.org/2000/svg"
   xmlns:sodipodi="http://sodipodi.sourceforge.net/DTD/sodipodi-0.dtd"
   xmlns:inkscape="http://www.inkscape.org/namespaces/inkscape"
   inkscape:version="1.0 (6e3e5246a0, 2020-05-07)"
   sodipodi:docname="logo-placeholder.svg"
   id="svg219"
   version="1.1"
   viewBox="0 0 210 297"
   height="297mm"
   width="210mm">
  <defs
     id="defs213" />
  <sodipodi:namedview
     showguides="false"
     inkscape:window-maximized="0"
     inkscape:window-y="114"
     inkscape:window-x="122"
     inkscape:window-height="752"
     inkscape:window-width="1706"
     showgrid="false"
     inkscape:document-rotation="0"
     inkscape:current-layer="text598-2"
     inkscape:document-units="mm"
     inkscape:cy="527.14337"
     inkscape:cx="328.78408"
     inkscape:zoom="0.49497475"
     inkscape:pageshadow="2"
     inkscape:pageopacity="0.0"
     borderopacity="1.0"
     bordercolor="#666666"
     pagecolor="#ffffff"
     id="base">
    <sodipodi:guide
       id="guide374"
       orientation="0,-1"
       position="-70.559154,297.00001" />
  </sodipodi:namedview>
  <metadata
     id="metadata216">
    <rdf:RDF>
      <cc:Work
         rdf:about="">
        <dc:format>image/svg+xml</dc:format>
        <dc:type
           rdf:resource="http://purl.org/dc/dcmitype/StillImage" />
      </cc:Work>
    </rdf:RDF>
  </metadata>
  <g
     id="layer1"
     inkscape:groupmode="layer"
     inkscape:label="Warstwa 1">
    <path
       id="path160"
       style="fill:#000000;stroke-width:1.42587"
       d="M 104.68044,36.38523 C 87.552562,36.385913 70.512453,44.147223 58.350147,57.565287 46.18786,70.983351 39.072785,89.915579 39.072644,108.97426 c 1.41e-4,19.05863 7.115216,37.98795 19.277503,51.40595 12.162306,13.41812 29.202415,21.18229 46.330293,21.18297 17.12784,-6.8e-4 34.16532,-7.76485 46.32766,-21.18297 12.16225,-13.418 19.28002,-32.34732 19.28012,-51.40595 -1e-4,-19.058681 -7.11787,-37.990909 -19.28012,-51.408973 C 138.84576,44.147223 121.80828,36.385975 104.68044,36.38523 Z m 0.002,14.27029 a 52.856247,58.31229 0 0 1 52.85527,58.31282 52.856247,58.31229 0 0 1 -52.85525,58.31276 52.856247,58.31229 0 0 1 -52.857949,-58.31276 52.856247,58.31229 0 0 1 52.857949,-58.31282 z" />
    <path
       d="M 34.804493,9.9744075 C 38.183315,7.268704 44.809365,10.74223 49.661108,17.762679 L 170.25791,192.26495 c 4.85174,7.02038 6.0375,14.85039 2.65866,17.5561 -3.37882,2.7057 -10.00481,-0.76783 -14.85656,-7.78821 L 37.463152,27.530567 C 32.61147,20.510118 31.425671,12.680111 34.804493,9.9744075 Z"
       style="fill:#00ffff;stroke-width:1.46408"
       id="rect164" />
    <g
       style="font-style:normal;font-weight:normal;font-size:11.0071px;line-height:1.25;font-family:sans-serif;fill:#000000;fill-opacity:1;stroke:none;stroke-width:0.275177"
       id="text598-2"
       transform="matrix(3.9798275,0,0,7.297459,-929.43025,-597.43036)"
       aria-label="HOOPLERS">
      <path
         id="path245"
         style="font-style:normal;font-variant:normal;font-weight:normal;font-stretch:normal;font-family:'ONE DAY';-inkscape-font-specification:'ONE DAY';stroke-width:0.275177"
         d="m 240.40923,120.2643 q -0.13208,0 -0.23115,-0.0881 -0.0881,-0.0991 -0.0881,-0.23115 v -3.47824 h -4.60097 q -0.12108,0 -0.22014,-0.0881 -0.0881,-0.0991 -0.0881,-0.23115 v -3.81946 q 0,-0.13208 0.0881,-0.22014 0.0991,-0.0991 0.22014,-0.0991 0.13208,0 0.22014,0.0991 0.0991,0.0881 0.0991,0.22014 v 3.50026 h 4.60097 q 0.12108,0 0.20914,0.0991 0.0991,0.0881 0.0991,0.22014 v 3.79745 q 0,0.13209 -0.0991,0.23115 -0.0881,0.0881 -0.20914,0.0881 z m 0,-5.09629 q -0.13208,0 -0.23115,-0.088 -0.0881,-0.0991 -0.0881,-0.22015 v -2.53163 q 0,-0.13208 0.0881,-0.22014 0.0991,-0.0991 0.23115,-0.0991 0.12108,0 0.20914,0.0991 0.0991,0.0881 0.0991,0.22014 v 2.53163 q 0,0.12108 -0.0991,0.22015 -0.0881,0.088 -0.20914,0.088 z m -4.92017,5.09629 q -0.12108,0 -0.22014,-0.0881 -0.0881,-0.0991 -0.0881,-0.23115 v -2.53163 q 0,-0.12108 0.0881,-0.20913 0.0991,-0.0991 0.22014,-0.0991 0.13208,0 0.22014,0.0991 0.0991,0.0881 0.0991,0.20913 v 2.53163 q 0,0.13209 -0.0991,0.23115 -0.0881,0.0881 -0.22014,0.0881 z" />
      <path
         id="path247"
         style="font-style:normal;font-variant:normal;font-weight:normal;font-stretch:normal;font-family:'ONE DAY';-inkscape-font-specification:'ONE DAY';stroke-width:0.275177"
         d="m 244.74018,120.29732 q -1.58502,0 -2.35552,-0.96862 -0.83654,-1.00165 -0.83654,-3.19206 0,-0.56136 0.044,-1.02366 0.055,-0.4623 0.14309,-0.85856 0.18712,-0.83654 0.58338,-1.30984 0.40726,-0.49532 1.03467,-0.74848 0.55035,-0.22015 1.38689,-0.22015 0.40726,0 0.75949,0.0661 0.35223,0.055 0.63841,0.19812 0.60539,0.24216 1.03467,0.79252 0.73748,1.01265 0.73748,3.104 0,1.00164 -0.18712,1.80516 -0.0991,0.38525 -0.25317,0.71546 -0.1541,0.33022 -0.37424,0.59439 -0.79251,1.04567 -2.35552,1.04567 z m 0,-7.68295 q -1.37589,0 -1.93725,0.72646 -0.6274,0.82554 -0.6274,2.79581 0,1.00164 0.1651,1.68408 0.17612,0.68244 0.50633,1.11172 0.58338,0.72647 1.89322,0.72647 1.26582,0 1.88222,-0.81453 0.3192,-0.44028 0.48431,-1.11171 0.17611,-0.68244 0.17611,-1.59603 0,-1.8602 -0.60539,-2.70775 -0.60539,-0.81452 -1.93725,-0.81452 z" />
      <path
         id="path249"
         style="font-style:normal;font-variant:normal;font-weight:normal;font-stretch:normal;font-family:'ONE DAY';-inkscape-font-specification:'ONE DAY';stroke-width:0.275177"
         d="m 251.72711,120.29732 q -1.58502,0 -2.35552,-0.96862 -0.83654,-1.00165 -0.83654,-3.19206 0,-0.56136 0.044,-1.02366 0.055,-0.4623 0.14309,-0.85856 0.18712,-0.83654 0.58338,-1.30984 0.40726,-0.49532 1.03467,-0.74848 0.55035,-0.22015 1.38689,-0.22015 0.40726,0 0.75949,0.0661 0.35223,0.055 0.63841,0.19812 0.60539,0.24216 1.03467,0.79252 0.73748,1.01265 0.73748,3.104 0,1.00164 -0.18713,1.80516 -0.0991,0.38525 -0.25316,0.71546 -0.1541,0.33022 -0.37424,0.59439 -0.79251,1.04567 -2.35552,1.04567 z m 0,-7.68295 q -1.37589,0 -1.93725,0.72646 -0.6274,0.82554 -0.6274,2.79581 0,1.00164 0.1651,1.68408 0.17612,0.68244 0.50633,1.11172 0.58338,0.72647 1.89322,0.72647 1.26582,0 1.88221,-0.81453 0.31921,-0.44028 0.48432,-1.11171 0.17611,-0.68244 0.17611,-1.59603 0,-1.8602 -0.60539,-2.70775 -0.60539,-0.81452 -1.93725,-0.81452 z" />
      <path
         id="path251"
         style="font-style:normal;font-variant:normal;font-weight:normal;font-stretch:normal;font-family:'ONE DAY';-inkscape-font-specification:'ONE DAY';stroke-width:0.275177"
         d="m 260.94848,112.80149 q 0.75949,0.74848 0.75949,2.04732 0,0.55035 -0.13208,0.96862 -0.12108,0.41827 -0.31921,0.72647 -0.19813,0.29719 -0.44028,0.49532 -0.24216,0.19813 -0.47331,0.31921 -0.25316,0.13208 -0.49532,0.20913 -0.23115,0.077 -0.41827,0.11007 -0.18712,0.033 -0.3082,0.044 -0.12108,0 -0.13208,0 H 258.659 q -0.12107,0 -0.22014,-0.0881 -0.088,-0.0991 -0.088,-0.22014 0,-0.14309 0.088,-0.23115 0.0991,-0.0991 0.22014,-0.0991 h 0.33022 q 0,0 0.0991,0 0.0991,-0.011 0.24216,-0.033 0.1541,-0.033 0.34122,-0.0881 0.19812,-0.055 0.39625,-0.16511 1.00165,-0.53934 1.00165,-1.94825 0,-1.02366 -0.56136,-1.60704 -0.38525,-0.36323 -0.96863,-0.52834 -0.23115,-0.055 -0.38525,-0.055 -0.1541,-0.011 -0.1651,-0.011 h -2.50962 v 4.43586 h 1.07869 q 0.13209,0 0.22015,0.0991 0.0991,0.0881 0.0991,0.23115 0,0.12108 -0.0991,0.22014 -0.0881,0.0881 -0.22015,0.0881 h -1.07869 v 2.23444 q 0,0.12108 -0.0991,0.22014 -0.0881,0.0881 -0.22014,0.0881 -0.13208,0 -0.22014,-0.0881 -0.0881,-0.0991 -0.0881,-0.22014 v -7.63893 q 0,-0.12107 0.0881,-0.20913 0.0881,-0.0991 0.22014,-0.0991 h 2.82883 q 0.022,0 0.22014,0.022 0.19813,0.011 0.48431,0.0881 0.28619,0.066 0.6164,0.23115 0.34122,0.15409 0.63841,0.45129 z" />
      <path
         id="path253"
         style="font-style:normal;font-variant:normal;font-weight:normal;font-stretch:normal;font-family:'ONE DAY';-inkscape-font-specification:'ONE DAY';stroke-width:0.275177"
         d="m 266.73185,120.2643 h -4.1827 q -0.13208,0 -0.23115,-0.0881 -0.0881,-0.0991 -0.0881,-0.23115 0,-0.13208 0.0881,-0.22014 0.0991,-0.0881 0.23115,-0.0881 h 4.1827 q 0.12108,0 0.22014,0.0881 0.0991,0.0881 0.0991,0.22014 0,0.13209 -0.0991,0.23115 -0.0991,0.0881 -0.22014,0.0881 z m -4.1827,-0.95762 q -0.13208,0 -0.23115,-0.088 -0.0881,-0.0881 -0.0881,-0.22015 v -6.6703 q 0,-0.13208 0.0881,-0.22014 0.0991,-0.0991 0.23115,-0.0991 0.13209,0 0.22015,0.0991 0.0881,0.0881 0.0881,0.22014 v 6.6703 q 0,0.13209 -0.0881,0.22015 -0.0881,0.088 -0.22015,0.088 z" />
      <path
         id="path255"
         style="font-style:normal;font-variant:normal;font-weight:normal;font-stretch:normal;font-family:'ONE DAY';-inkscape-font-specification:'ONE DAY';stroke-width:0.275177"
         d="m 268.38137,114.58464 q -0.13209,0 -0.22014,-0.0881 -0.0881,-0.0991 -0.0881,-0.23115 v -1.94826 q 0,-0.13208 0.0881,-0.22014 0.0881,-0.088 0.22014,-0.088 h 4.60097 q 0.13208,0 0.22014,0.088 0.0881,0.0881 0.0881,0.22014 0,0.13209 -0.0881,0.23115 -0.0881,0.0881 -0.22014,0.0881 h -4.28177 v 1.62905 q 0,0.13209 -0.0991,0.23115 -0.0881,0.0881 -0.22014,0.0881 z m 4.60097,5.66865 h -4.60097 q -0.13209,0 -0.22014,-0.0881 -0.0881,-0.0881 -0.0881,-0.22015 v -4.35881 q 0,-0.13208 0.0881,-0.22014 0.0881,-0.0991 0.22014,-0.0991 h 3.48925 q 0.13208,0 0.22014,0.0991 0.0991,0.0881 0.0991,0.22014 0,0.12108 -0.0991,0.22014 -0.0881,0.0881 -0.22014,0.0881 h -3.17005 v 3.73141 h 4.28177 q 0.13208,0 0.22014,0.0991 0.0881,0.0881 0.0881,0.22014 0,0.13209 -0.0881,0.22015 -0.0881,0.0881 -0.22014,0.0881 z" />
      <path
         id="path257"
         style="font-style:normal;font-variant:normal;font-weight:normal;font-stretch:normal;font-family:'ONE DAY';-inkscape-font-specification:'ONE DAY';stroke-width:0.275177"
         d="m 280.20213,119.73596 q 0.0881,0.0881 0.077,0.22014 0,0.13209 -0.0991,0.22014 -0.0881,0.0881 -0.22014,0.0881 -0.1431,0 -0.22014,-0.11007 l -2.26747,-2.43257 h -2.65271 v 2.23444 q 0,0.12108 -0.0991,0.22014 -0.0991,0.0881 -0.22014,0.0881 -0.13209,0 -0.23115,-0.0881 -0.0881,-0.0991 -0.0881,-0.22014 v -7.62792 q 0,-0.13208 0.0881,-0.22014 0.0991,-0.0991 0.23115,-0.0991 h 2.68573 q 0.033,0 0.24215,0.022 0.20914,0.011 0.51734,0.0881 0.3082,0.077 0.66042,0.25316 0.35223,0.16511 0.67144,0.4733 0.75949,0.74849 0.75949,2.0143 0,0.82554 -0.26417,1.41992 -0.22015,0.49532 -0.64942,0.86956 -0.11007,0.0881 -0.24216,0.077 -0.12108,-0.022 -0.20913,-0.11007 -0.0881,-0.0991 -0.066,-0.23115 0.022,-0.13208 0.11007,-0.22014 0.68245,-0.57237 0.68245,-1.80517 0,-1.01265 -0.56137,-1.57401 -0.25316,-0.25316 -0.55035,-0.37424 -0.28619,-0.13209 -0.50633,-0.18712 -0.26417,-0.044 -0.42928,-0.0661 -0.0991,-0.011 -0.1651,-0.011 h -2.36653 v 4.43586 h 2.80681 q 0.12108,0 0.22014,0.0991 l 2.35552,2.55365 z" />
      <path
         id="path259"
         style="font-style:normal;font-variant:normal;font-weight:normal;font-stretch:normal;font-family:'ONE DAY';-inkscape-font-specification:'ONE DAY';stroke-width:0.275177"
         d="m 285.59252,114.19939 q 0,0.13208 -0.0991,0.23115 -0.0881,0.088 -0.20913,0.088 -0.13209,0 -0.23115,-0.088 -0.0881,-0.0881 -0.0881,-0.22014 h -0.011 0.011 q 0,0 -0.011,-0.077 0,-0.077 -0.033,-0.18713 -0.022,-0.12107 -0.066,-0.26417 -0.044,-0.14309 -0.13208,-0.29719 -0.44029,-0.7815 -1.541,-0.7815 -0.55035,0 -0.89157,0.1541 -0.34122,0.14309 -0.53935,0.37424 -0.18712,0.23115 -0.26417,0.51733 -0.066,0.28619 -0.066,0.55036 0,0.24215 0.055,0.50632 0.055,0.25317 0.19813,0.48432 0.1541,0.22014 0.41827,0.38525 0.26417,0.1651 0.69345,0.22014 0.12107,0.022 0.19812,0.13208 0.0881,0.0991 0.0661,0.22014 -0.022,0.12108 -0.11007,0.19813 -0.077,0.077 -0.19813,0.077 -0.033,0 -0.044,-0.011 -0.66043,-0.0661 -1.0897,-0.39626 -0.39626,-0.28618 -0.58338,-0.70445 -0.0881,-0.17612 -0.14309,-0.34122 -0.044,-0.17612 -0.0661,-0.31921 -0.022,-0.1541 -0.022,-0.26417 -0.011,-0.12108 -0.011,-0.18712 0,-0.055 0.011,-0.17612 0,-0.13208 0.022,-0.29719 0.044,-0.20913 0.0991,-0.39625 0.066,-0.18712 0.17611,-0.36324 0.25317,-0.42927 0.74849,-0.70445 0.26417,-0.13209 0.60539,-0.20914 0.34122,-0.077 0.73747,-0.077 0.4623,0 0.80352,0.11008 0.34122,0.0991 0.59438,0.26417 0.25317,0.15409 0.41827,0.35222 0.17612,0.19813 0.28619,0.38525 0.20913,0.38525 0.25316,0.70446 0.055,0.3192 0.055,0.39625 z m -0.20914,2.83983 q 0.1541,0.35223 0.17612,0.67143 0.033,0.3082 0.033,0.44029 0,0.1541 -0.044,0.49532 -0.033,0.34122 -0.25317,0.71546 -0.14309,0.22014 -0.34122,0.38525 -0.18712,0.1651 -0.42927,0.28618 -0.25317,0.12108 -0.59439,0.19813 -0.34122,0.066 -0.73747,0.066 -0.4623,0 -0.81453,-0.0991 -0.34122,-0.0991 -0.59438,-0.25317 -0.25316,-0.15409 -0.42928,-0.34122 -0.1651,-0.18712 -0.26417,-0.37424 -0.11007,-0.19812 -0.17611,-0.38525 -0.055,-0.19812 -0.0881,-0.34122 -0.033,-0.1541 -0.033,-0.24215 -0.011,-0.0991 -0.011,-0.11007 0,-0.13209 0.0881,-0.23115 0.0991,-0.0991 0.23115,-0.0991 0.12108,0 0.22014,0.0991 0.0991,0.0991 0.0991,0.23115 0,0.011 0.022,0.25316 0.033,0.23115 0.19813,0.51733 0.44028,0.74849 1.552,0.74849 1.76113,0 1.76113,-1.51898 0,-1.41992 -1.23279,-1.65107 -0.13209,-0.022 -0.20914,-0.13208 -0.066,-0.11007 -0.033,-0.24216 0.022,-0.13208 0.12108,-0.19813 0.11007,-0.066 0.25316,-0.044 0.59439,0.0991 0.99064,0.4513 0.35223,0.27517 0.53935,0.70445 z" />
    </g>
  </g>
</svg>
