<?xml version="1.0" encoding="UTF-8" standalone="no"?>
<svg
   xmlns:dc="http://purl.org/dc/elements/1.1/"
   xmlns:cc="http://creativecommons.org/ns#"
   xmlns:rdf="http://www.w3.org/1999/02/22-rdf-syntax-ns#"
   xmlns:svg="http://www.w3.org/2000/svg"
   xmlns="http://www.w3.org/2000/svg"
   xmlns:sodipodi="http://sodipodi.sourceforge.net/DTD/sodipodi-0.dtd"
   xmlns:inkscape="http://www.inkscape.org/namespaces/inkscape"
   sodipodi:docname="logo-dark-own1.svg"
   inkscape:version="1.0 (6e3e5246a0, 2020-05-07)"
   width="42.0px"
   height="42.0px"
   viewBox="0 0 42.0 42.0"
   version="1.1"
   id="SVGRoot">
  <defs
     id="defs514" />
  <sodipodi:namedview
     inkscape:window-maximized="0"
     inkscape:window-y="27"
     inkscape:window-x="72"
     inkscape:window-height="1016"
     inkscape:window-width="1706"
     showgrid="true"
     inkscape:document-rotation="0"
     inkscape:current-layer="layer1"
     inkscape:document-units="px"
     inkscape:cy="21.683221"
     inkscape:cx="19.826607"
     inkscape:zoom="15.839192"
     inkscape:pageshadow="2"
     inkscape:pageopacity="0.0"
     borderopacity="1.0"
     bordercolor="#666666"
     pagecolor="#ffffff"
     id="base">
    <inkscape:grid
       type="xygrid"
       id="grid523" />
  </sodipodi:namedview>
  <metadata
     id="metadata517">
    <rdf:RDF>
      <cc:Work
         rdf:about="">
        <dc:format>image/svg+xml</dc:format>
        <dc:type
           rdf:resource="http://purl.org/dc/dcmitype/StillImage" />
        <dc:title></dc:title>
      </cc:Work>
    </rdf:RDF>
  </metadata>
  <g
     id="layer1"
     inkscape:groupmode="layer"
     inkscape:label="Warstwa 1">
    <path
       id="path160"
       style="fill:#ececec;stroke-width:0.244376"
       d="M 20.212061,4.9327427 C 16.75826,4.9328423 13.32216,6.0634058 10.869658,8.0179799 8.4171548,9.9725537 6.9824178,12.730363 6.9823852,15.506592 c 3.26e-5,2.776227 1.4347696,5.533606 3.8872728,7.488179 2.452502,1.954577 5.888602,3.085568 9.342403,3.085667 3.453791,-1.04e-4 6.889369,-1.13109 9.341871,-3.085667 2.452491,-1.954573 3.887773,-4.711954 3.887802,-7.488179 -2.9e-5,-2.776226 -1.435311,-5.5340383 -3.887802,-7.4886121 -2.452502,-1.9545741 -5.88808,-3.085133 -9.341871,-3.0852372 z m 5.42e-4,2.0787135 A 10.65835,8.4942001 0 0 1 30.870756,15.505733 10.65835,8.4942001 0 0 1 20.212603,24.000005 10.65835,8.4942001 0 0 1 9.5539211,15.505733 10.65835,8.4942001 0 0 1 20.212603,7.0114562 Z" />
    <rect
       style="fill:#00ffff;stroke-width:0.254564"
       id="rect164"
       width="2.8415828"
       height="40.287483"
       x="2.3595538"
       y="4.1219616"
       ry="2.5546086"
       transform="matrix(0.86560397,-0.50072923,0.69128182,0.72258525,0,0)" />
    <text
       xml:space="preserve"
       style="font-style:normal;font-weight:normal;font-size:9.20041px;line-height:1.25;font-family:sans-serif;fill:#ececec;fill-opacity:1;stroke:none;stroke-width:0.230011"
       x="0.57366151"
       y="33.860706"
       id="text598-2"
       transform="scale(0.84883729,1.1780821)"><tspan
         sodipodi:role="line"
         id="tspan596-2"
         x="0.57366151"
         y="33.860706"
         style="font-style:normal;font-variant:normal;font-weight:normal;font-stretch:normal;font-family:'ONE DAY';-inkscape-font-specification:'ONE DAY';fill:#ececec;stroke-width:0.230011">HOOPLERS</tspan></text>
  </g>
</svg>
